<svg xmlns="http://www.w3.org/2000/svg" width="22" height="34" fill="none"><mask id="b" width="22" height="34" x="0" y="0" fill="#000" maskUnits="userSpaceOnUse"><path fill="#fff" d="M0 0h22v34H0z"/><path fill-rule="evenodd" d="M17.78 18.9A10.43 10.43 0 0 0 21 11.3C21 5.61 16.52 1 11 1S1 5.62 1 11.31c0 3 1.24 5.7 3.22 7.59L11 31l6.78-12.1Z" clip-rule="evenodd"/></mask><path fill="url(#a)" fill-rule="evenodd" d="M17.78 18.9A10.43 10.43 0 0 0 21 11.3C21 5.61 16.52 1 11 1S1 5.62 1 11.31c0 3 1.24 5.7 3.22 7.59L11 31l6.78-12.1Z" clip-rule="evenodd"/><path fill="#000" d="m17.78 18.9-.7-.73-.1.1-.08.14.88.49Zm-13.56 0 .88-.5-.08-.12-.1-.1-.7.72ZM11 31l-.87.49.87 1.56.87-1.56L11 31Zm9-19.69a9.43 9.43 0 0 1-2.91 6.86l1.38 1.45a11.43 11.43 0 0 0 3.53-8.3h-2ZM11 2c4.94 0 9 4.14 9 9.31h2C22 5.1 17.1 0 11 0v2Zm-9 9.31C2 6.14 6.06 2 11 2V0C4.9 0 0 5.1 0 11.31h2Zm2.91 6.86A9.43 9.43 0 0 1 2 11.31H0c0 3.28 1.36 6.24 3.53 8.31l1.38-1.45Zm6.96 12.34L5.1 18.41l-1.75.98 6.78 12.1 1.74-.98Zm5.03-12.1-6.77 12.1 1.74.98 6.78-12.1-1.75-.98Z" mask="url(#b)"/><g filter="url(#c)"><ellipse cx="11.08" cy="10.79" fill="#D9D9D9" rx="6.52" ry="7.17"/></g><defs><linearGradient id="a" x1="11" x2="11" y1="1" y2="31" gradientUnits="userSpaceOnUse"><stop stop-color="#8A06DB"/><stop offset=".44" stop-color="#4A0375" stop-opacity=".7"/><stop offset=".56" stop-color="#4A0375" stop-opacity=".6"/><stop offset="1" stop-color="#4A0375"/></linearGradient><filter id="c" width="13.04" height="18.35" x="4.55" y="3.62" color-interpolation-filters="sRGB" filterUnits="userSpaceOnUse"><feFlood flood-opacity="0" result="BackgroundImageFix"/><feBlend in="SourceGraphic" in2="BackgroundImageFix" result="shape"/><feColorMatrix in="SourceAlpha" result="hardAlpha" values="0 0 0 0 0 0 0 0 0 0 0 0 0 0 0 0 0 0 127 0"/><feOffset dy="4"/><feGaussianBlur stdDeviation="2"/><feComposite in2="hardAlpha" k2="-1" k3="1" operator="arithmetic"/><feColorMatrix values="0 0 0 0 0.346351 0 0 0 0 0.030823 0 0 0 0 0.747933 0 0 0 0.83 0"/><feBlend in2="shape" result="effect1_innerShadow_45_126"/></filter></defs></svg>